<svg width="24" height="24" viewBox="0 0 24 24" fill="none" xmlns="http://www.w3.org/2000/svg">
<g opacity="0.25">
<path d="M3.375 6V22.5C3.375 23.328 4.04702 24 4.87502 24H19.125C19.953 24 20.625 23.328 20.625 22.5V6H3.375Z" fill="#CCD0D2"/>
<path d="M8.62502 0H15.375C16.203 0 16.8751 0.672019 16.8751 1.50002V3.00004H15.375V2.25003C15.375 1.83607 15.0398 1.50002 14.625 1.50002H9.37503C8.9603 1.50002 8.62502 1.83599 8.62502 2.25003V3.00004H7.125V1.50002C7.125 0.672019 7.79702 0 8.62502 0Z" fill="#CCD0D2"/>
<path d="M6.375 20.6247C6.375 21.2464 6.87904 21.7497 7.49997 21.7497C8.121 21.7497 8.62495 21.2464 8.62495 20.6247V9.72656H6.375V20.6247ZM15.375 9.72656V20.6248C15.375 21.2458 15.8791 21.7498 16.5 21.7498C17.121 21.7498 17.625 21.2457 17.625 20.6248V9.72656H15.375ZM10.875 20.6247C10.875 21.2457 11.379 21.7497 12 21.7497C12.621 21.7497 13.1249 21.2457 13.1249 20.6247V9.72656H10.8749L10.875 20.6247Z" fill="#AEB1B3"/>
<path d="M3.375 6.75H20.625V8.25002H3.375V6.75Z" fill="#AEB1B3"/>
<path d="M3.37502 3H20.625C21.453 3 22.125 3.67202 22.125 4.50002V6.75005H1.875V4.50002C1.875 3.67202 2.54702 3 3.37502 3Z" fill="#D1D5D7"/>
</g>
</svg>
